<svg width="770" height="704" viewBox="0 0 770 704" fill="none" xmlns="http://www.w3.org/2000/svg">
<path d="M754.5 553.5C754.1 546.7 681.667 590.334 645.5 613V683.5L754.5 624C754.667 603.333 754.9 560.3 754.5 553.5Z" fill="#1EB081"/>
<path d="M641 616.5L539.5 573.5C537.667 586.167 534.6 616.6 537 637C540 662.5 638.5 687.5 641 686.5C643 685.7 641.833 639.5 641 616.5Z" fill="#1EB081"/>
<rect width="138.998" height="9.99625" transform="matrix(0.928073 0.372398 -3.16985e-08 1 515 624.562)" fill="#FFCAFD"/>
<rect width="118.525" height="9.99625" transform="matrix(0.928073 0.372398 -3.16985e-08 1 532 563.624)" fill="#FFCAFD"/>
<rect width="138.998" height="9.99625" transform="matrix(0.928073 0.372398 -3.16985e-08 1 515 633.757)" fill="#FFCAFD"/>
<rect width="138.998" height="9.99625" transform="matrix(0.928073 0.372398 -3.16985e-08 1 515 641.803)" fill="#FFCAFD"/>
<path d="M0 389L0 5H10L10 389H0Z" fill="#FFCAFD"/>
<path d="M0 0L751 0V10H0L0 0Z" fill="#FFCAFD"/>
<path d="M43 129H640V139H43V129Z" fill="#FFCAFD"/>
<rect width="142.992" height="11.2595" transform="matrix(0.881168 -0.472803 2.37052e-08 1 644 676.168)" fill="#FFCAFD"/>
<rect width="129.374" height="11.2595" transform="matrix(0.881168 -0.472803 2.37052e-08 1 647 605.168)" fill="#FFCAFD"/>
<rect width="142.992" height="11.2595" transform="matrix(0.881168 -0.472803 2.37052e-08 1 644 684.168)" fill="#FFCAFD"/>
<rect width="142.992" height="11.2595" transform="matrix(0.881168 -0.472803 2.37052e-08 1 644 691.168)" fill="#FFCAFD"/>
<path d="M162 349V129H172V349H162Z" fill="#FFCAFD"/>
<path d="M751 634V5.24521e-06H761V634H751Z" fill="#FFCAFD"/>
<path d="M532 659V129H542V659H532Z" fill="#FFCAFD"/>
<rect width="61.1991" height="8.69672" transform="matrix(0.866025 0.5 -2.20305e-08 1 0 380)" fill="#FFCAFD"/>
<rect width="56.5803" height="9.84244" transform="matrix(0.866025 0.5 -2.20305e-08 1 117 313)" fill="#FFCAFD"/>
<rect width="137.409" height="10" transform="matrix(0.866025 -0.5 2.20305e-08 1 53 408.705)" fill="#FFCAFD"/>
<rect width="130.481" height="10" transform="matrix(0.866025 -0.5 2.20305e-08 1 4 378.24)" fill="#FFCAFD"/>
<path d="M43 411L43 129H53L53 411H43Z" fill="#FFCAFD"/>
<path d="M639 695V129H649V695H639Z" fill="#FFCAFD"/>
</svg>
