<svg width="824" height="550" viewBox="0 0 824 550" fill="none" xmlns="http://www.w3.org/2000/svg">
<rect width="78.3368" height="10" transform="matrix(0.866025 0.5 -2.20305e-08 1 105 438)" fill="#FFCAFD"/>
<rect width="121.244" height="10" transform="matrix(0.866025 -0.5 2.20305e-08 1 0 498.622)" fill="#FFCAFD"/>
<rect width="78.3368" height="10" transform="matrix(0.866025 0.5 -2.20305e-08 1 0 499)" fill="#FFCAFD"/>
<rect width="123.553" height="10" transform="matrix(0.866025 -0.5 2.20305e-08 1 68 538.354)" fill="#FFCAFD"/>
<rect x="681" y="405" width="143" height="10" fill="#FFCAFD"/>
<rect x="671" y="415" width="415" height="10" transform="rotate(-90 671 415)" fill="#FFCAFD"/>
<rect x="108" width="563" height="10" fill="#FFCAFD"/>
<path d="M9 57H583V67H9V57Z" fill="#FFCAFD"/>
<rect x="78" y="134" width="453" height="10" fill="#FFCAFD"/>
<rect x="165" y="486" width="343" height="10" transform="rotate(-90 165 486)" fill="#FFCAFD"/>
<rect width="124.708" height="10" transform="matrix(0.866025 -0.5 2.20305e-08 1 0 62.3538)" fill="#FFCAFD"/>
<rect y="506" width="443" height="10" transform="rotate(-90 0 506)" fill="#FFCAFD"/>
<rect x="573" y="457" width="400" height="10" transform="rotate(-90 573 457)" fill="#FFCAFD"/>
<rect x="521" y="549" width="405" height="10" transform="rotate(-90 521 549)" fill="#FFCAFD"/>
<rect x="583" y="447" width="168" height="10" fill="#FFCAFD"/>
<rect x="531" y="539" width="220" height="10" fill="#FFCAFD"/>
<rect x="68" y="542" width="408" height="10" transform="rotate(-90 68 542)" fill="#FFCAFD"/>
<rect width="84.2931" height="10" transform="matrix(0.866025 -0.5 2.20305e-08 1 751 447.146)" fill="#FFCAFD"/>
<rect width="84.2931" height="10" transform="matrix(0.866025 -0.5 2.20305e-08 1 751 539.146)" fill="#FFCAFD"/>
<rect width="91.7911" height="10" transform="matrix(0.00204876 -0.999998 0.864999 0.501773 747 538.791)" fill="#FFCAFD"/>
<rect width="91.7911" height="10" transform="matrix(0.00204876 -0.999998 0.864999 0.501773 815 501.791)" fill="#FFCAFD"/>
</svg>
