<svg width="546" height="529" viewBox="0 0 546 529" fill="none" xmlns="http://www.w3.org/2000/svg">
<path d="M95.8936 435.332L435.001 96.2244L449.478 110.701L110.37 449.809L95.8936 435.332Z" fill="#FFCAFD"/>
<path d="M110.37 96.2246L449.478 435.332L435.001 449.809L95.8935 110.701L110.37 96.2246Z" fill="#FFCAFD"/>
<path d="M263 512.784L263 33.7842H283L283 512.784H263Z" fill="#FFCAFD"/>
<path d="M27 262H520V282H27V262Z" fill="#FFCAFD"/>
<path d="M273.5 305.784C292.002 305.784 307 291.01 307 272.784C307 254.559 292.002 239.784 273.5 239.784C254.998 239.784 240 254.559 240 272.784C240 291.01 254.998 305.784 273.5 305.784Z" fill="#1EB081"/>
<circle cx="34" cy="273" r="34" fill="#00465B"/>
<circle cx="512" cy="274" r="34" fill="#00465B"/>
<circle cx="273" cy="34" r="34" fill="#00465B"/>
<circle cx="273" cy="495" r="34" fill="#00465B"/>
<circle cx="435" cy="433" r="34" fill="#00465B"/>
<circle cx="435" cy="102" r="34" fill="#00465B"/>
<circle cx="106" cy="102" r="34" fill="#00465B"/>
<circle cx="106" cy="433" r="34" fill="#00465B"/>
</svg>
