<svg width="488" height="757" viewBox="0 0 488 757" fill="none" xmlns="http://www.w3.org/2000/svg">
<rect y="319" width="488" height="324" rx="46" fill="#FFD923"/>
<path d="M74.2866 416L54.8063 420.487L36.2762 432.952L32 551.114L41.0275 573.051L56.7068 591H368.393L392.149 572.054L395 452.396L388.823 432.453L367.442 416H74.2866Z" fill="#FFCAFD"/>
<path d="M262.036 643H98V718.457L122.431 703.558L216.166 699.713C228.464 703.238 254.856 711.921 262.036 718.457C269.215 724.994 265.027 670.876 262.036 643Z" fill="#008CB6"/>
<rect x="89" y="326" width="294" height="10" transform="rotate(-90 89 326)" fill="#FFD923"/>
<rect x="94" y="724" width="89" height="10" transform="rotate(-90 94 724)" fill="#FFD923"/>
<path d="M260 129.5C260 132.013 258.638 135.03 254.796 138.384C250.965 141.729 245.132 144.969 237.493 147.791C222.254 153.419 200.867 157 177 157C153.133 157 131.746 153.419 116.507 147.791C108.868 144.969 103.035 141.729 99.2041 138.384C95.3623 135.03 94 132.013 94 129.5C94 126.987 95.3623 123.97 99.2041 120.616C103.035 117.271 108.868 114.031 116.507 111.209C131.746 105.581 153.133 102 177 102C200.867 102 222.254 105.581 237.493 111.209C245.132 114.031 250.965 117.271 254.796 120.616C258.638 123.97 260 126.987 260 129.5Z" fill="#00465B" stroke="#FFD923" stroke-width="10"/>
<path d="M260 227.5C260 230.013 258.638 233.03 254.796 236.384C250.965 239.729 245.132 242.969 237.493 245.791C222.254 251.419 200.867 255 177 255C153.133 255 131.746 251.419 116.507 245.791C108.868 242.969 103.035 239.729 99.2041 236.384C95.3623 233.03 94 230.013 94 227.5C94 224.987 95.3623 221.97 99.2041 218.616C103.035 215.271 108.868 212.031 116.507 209.209C131.746 203.581 153.133 200 177 200C200.867 200 222.254 203.581 237.493 209.209C245.132 212.031 250.965 215.271 254.796 218.616C258.638 221.97 260 224.987 260 227.5Z" fill="#1EB081" stroke="#FFD923" stroke-width="10"/>
<path d="M260 325.5C260 328.013 258.638 331.03 254.796 334.384C250.965 337.729 245.132 340.969 237.493 343.791C222.254 349.419 200.867 353 177 353C153.133 353 131.746 349.419 116.507 343.791C108.868 340.969 103.035 337.729 99.2041 334.384C95.3623 331.03 94 328.013 94 325.5C94 322.987 95.3623 319.97 99.2041 316.616C103.035 313.271 108.868 310.031 116.507 307.209C131.746 301.581 153.133 298 177 298C200.867 298 222.254 301.581 237.493 307.209C245.132 310.031 250.965 313.271 254.796 316.616C258.638 319.97 260 322.987 260 325.5Z" fill="#E95627" stroke="#FFD923" stroke-width="10"/>
<path d="M260 32.5C260 35.0133 258.638 38.0297 254.796 41.3842C250.965 44.7293 245.132 47.9693 237.493 50.7906C222.254 56.4189 200.867 60 177 60C153.133 60 131.746 56.4189 116.507 50.7906C108.868 47.9693 103.035 44.7293 99.2041 41.3842C95.3623 38.0297 94 35.0133 94 32.5C94 29.9867 95.3623 26.9703 99.2041 23.6158C103.035 20.2707 108.868 17.0307 116.507 14.2094C131.746 8.58115 153.133 5 177 5C200.867 5 222.254 8.58115 237.493 14.2094C245.132 17.0307 250.965 20.2707 254.796 23.6158C258.638 26.9703 260 29.9867 260 32.5Z" fill="#A66BE4" stroke="#FFD923" stroke-width="10"/>
<path d="M264 724.5C264 727.013 262.638 730.03 258.796 733.384C254.965 736.729 249.132 739.969 241.493 742.791C226.254 748.419 204.867 752 181 752C157.133 752 135.746 748.419 120.507 742.791C112.868 739.969 107.035 736.729 103.204 733.384C99.3623 730.03 98 727.013 98 724.5C98 721.987 99.3623 718.97 103.204 715.616C107.035 712.271 112.868 709.031 120.507 706.209C135.746 700.581 157.133 697 181 697C204.867 697 226.254 700.581 241.493 706.209C249.132 709.031 254.965 712.271 258.796 715.616C262.638 718.97 264 721.987 264 724.5Z" fill="#E95627" stroke="#FFD923" stroke-width="10"/>
<rect x="254" y="326" width="294" height="10" transform="rotate(-90 254 326)" fill="#FFD923"/>
<rect x="259" y="725" width="89" height="10" transform="rotate(-90 259 725)" fill="#FFD923"/>
<rect x="33" y="416" width="361" height="181" rx="41" stroke="#00465B" stroke-width="10"/>
</svg>
