<svg width="1182" height="833" viewBox="0 0 1182 833" fill="none" xmlns="http://www.w3.org/2000/svg">
<path d="M5 461H184V586H5V461Z" fill="#1EB081"/>
<path d="M320 371V216H445V371H320Z" fill="#FFD923"/>
<path d="M562 435H764V560H562V435Z" fill="#00465B"/>
<path d="M865 830V675H990V830H865Z" fill="#FFCAFD"/>
<path d="M980 360H1182V485H980V360Z" fill="#A66BE4"/>
<path d="M572 823H1182V833H572V823Z" fill="#FFCAFD"/>
<path d="M179 364H572V374H179V364Z" fill="#FFCAFD"/>
<path d="M0 211H754V221H0L0 211Z" fill="#FFCAFD"/>
<path d="M764 670H990V680H764V670Z" fill="#FFCAFD"/>
<path d="M0 823H189V833H0L0 823Z" fill="#FFCAFD"/>
<path d="M990 0L1172 0V10H990V0Z" fill="#FFCAFD"/>
<path d="M1172 153V0H1182V153H1172Z" fill="#FFCAFD"/>
<path d="M980 153V0H990V153H980Z" fill="#FFCAFD"/>
<path d="M980 670V173H990V670H980Z" fill="#FFCAFD"/>
<path d="M1172 823V173H1182V823H1172Z" fill="#FFCAFD"/>
<path d="M562 833V364H572V833H562Z" fill="#FFCAFD"/>
<path d="M0 833L0 221H10L10 833H0Z" fill="#FFCAFD"/>
<path d="M179 833V374H189V833H179Z" fill="#FFCAFD"/>
<path d="M754 680V211H764V680H754Z" fill="#FFCAFD"/>
<path d="M1076 153V0H1086V153H1076Z" fill="#FFCAFD"/>
<path d="M1124 153V0H1134V153H1124Z" fill="#FFCAFD"/>
<path d="M1148 153V0H1158V153H1148Z" fill="#FFCAFD"/>
<path d="M1028 153V0H1038V153H1028Z" fill="#FFCAFD"/>
<path d="M1004 153V0H1014V153H1004Z" fill="#FFCAFD"/>
<path d="M1052 153V0H1062V153H1052Z" fill="#FFCAFD"/>
<path d="M1100 153V0H1110V153H1100Z" fill="#FFCAFD"/>
<path d="M990 143H1172V153H990V143Z" fill="#FFCAFD"/>
<path d="M980 153H1182V163H980V153Z" fill="#FFCAFD"/>
<path d="M980 163H1182V173H980V163Z" fill="#FFCAFD"/>
</svg>
