<svg width="113" height="113" viewBox="0 0 113 113" fill="none" xmlns="http://www.w3.org/2000/svg">
<g clip-path="url(#clip0)">
<path d="M60.0934 0H52.0296V113H60.0934V0Z" fill="#00465B"/>
<path d="M0 52.4674L0 60.5312L113 60.5313V52.4674L0 52.4674Z" fill="#00465B"/>
<path d="M18.9605 14.1101L13.2586 19.812L93.1609 99.7143L98.8628 94.0124L18.9605 14.1101Z" fill="#00465B"/>
<path d="M99.4228 19.2527L93.7209 13.5508L13.8187 93.4531L19.5206 99.155L99.4228 19.2527Z" fill="#00465B"/>
<path d="M56.2073 104.892C83.0951 104.892 104.892 83.0953 104.892 56.2076C104.892 29.3198 83.0951 7.52295 56.2073 7.52295C29.3196 7.52295 7.52275 29.3198 7.52275 56.2076C7.52275 83.0953 29.3196 104.892 56.2073 104.892Z" fill="#00465B"/>
</g>
<defs>
<clipPath id="clip0">
<rect width="113" height="113" fill="white"/>
</clipPath>
</defs>
</svg>
