<svg width="233" height="233" viewBox="0 0 233 233" fill="none" xmlns="http://www.w3.org/2000/svg">
<g clip-path="url(#clip0)">
<path d="M116.498 222.642C175.102 222.642 222.61 175.12 222.61 116.5C222.61 57.8793 175.102 10.3579 116.498 10.3579C57.8938 10.3579 10.3859 57.8793 10.3859 116.5C10.3859 175.12 57.8938 222.642 116.498 222.642Z" fill="#00465B"/>
<path d="M116.498 188.976C156.427 188.976 188.795 156.598 188.795 116.658C188.795 76.7177 156.427 44.3398 116.498 44.3398C76.5689 44.3398 44.2002 76.7177 44.2002 116.658C44.2002 156.598 76.5689 188.976 116.498 188.976Z" fill="#FFD923"/>
<path d="M125.288 0H107.712V10.3888H125.288V0Z" fill="#FFD923"/>
<path d="M205.132 40.4301L192.704 27.9988L185.36 35.3447L197.788 47.776L205.132 40.4301Z" fill="#FFD923"/>
<path d="M47.7754 197.829L35.3476 185.398L28.0038 192.744L40.4316 205.175L47.7754 197.829Z" fill="#FFD923"/>
<path d="M43.7266 24.8788L31.2988 37.3101L38.6427 44.656L51.0705 32.2247L43.7266 24.8788Z" fill="#FFD923"/>
<path d="M200.937 182.136L188.509 194.568L195.853 201.914L208.281 189.482L200.937 182.136Z" fill="#FFD923"/>
<path d="M125.288 222.611H107.712V233H125.288V222.611Z" fill="#FFD923"/>
<path d="M222.612 107.724V125.304H232.997V107.724H222.612Z" fill="#FFD923"/>
<path d="M-0.000488281 107.725L-0.000488281 125.306H10.3854L10.3854 107.725H-0.000488281Z" fill="#FFD923"/>
<path d="M116.498 176.136C149.337 176.136 175.959 149.507 175.959 116.658C175.959 83.8091 149.337 57.1799 116.498 57.1799C83.6584 57.1799 57.0367 83.8091 57.0367 116.658C57.0367 149.507 83.6584 176.136 116.498 176.136Z" fill="#00465B"/>
</g>
<defs>
<clipPath id="clip0">
<rect width="233" height="233" fill="white"/>
</clipPath>
</defs>
</svg>
