<svg width="229" height="229" viewBox="0 0 229 229" fill="none" xmlns="http://www.w3.org/2000/svg">
<path d="M121.782 0H105.441V229H121.782V0Z" fill="#FFD923"/>
<path d="M0 106.328L0 122.67L229 122.67V106.328L0 106.328Z" fill="#FFD923"/>
<path d="M38.4243 28.5949L26.8691 40.1501L188.795 202.076L200.35 190.521L38.4243 28.5949Z" fill="#FFD923"/>
<path d="M201.485 39.0167L189.93 27.4614L28.0042 189.387L39.5594 200.943L201.485 39.0167Z" fill="#FFD923"/>
<path d="M113.907 212.569C168.396 212.569 212.569 168.396 212.569 113.907C212.569 59.4177 168.396 15.2454 113.907 15.2454C59.4175 15.2454 15.2452 59.4177 15.2452 113.907C15.2452 168.396 59.4175 212.569 113.907 212.569Z" fill="#FFD923"/>
<path d="M114.204 202.875C163.34 202.875 203.173 163.043 203.173 113.907C203.173 64.771 163.34 24.9385 114.204 24.9385C65.0686 24.9385 25.2361 64.771 25.2361 113.907C25.2361 163.043 65.0686 202.875 114.204 202.875Z" fill="#A66BE4"/>
<path d="M113.907 189.02C155.226 189.02 188.723 155.524 188.723 114.205C188.723 72.885 155.226 39.3889 113.907 39.3889C72.5874 39.3889 39.0913 72.885 39.0913 114.205C39.0913 155.524 72.5874 189.02 113.907 189.02Z" fill="#FFD923"/>
<path d="M113.907 144.895C131.021 144.895 144.895 131.021 144.895 113.907C144.895 96.7929 131.021 82.9192 113.907 82.9192C96.7929 82.9192 82.9192 96.7929 82.9192 113.907C82.9192 131.021 96.7929 144.895 113.907 144.895Z" fill="#A66BE4"/>
<path d="M119.377 73.8535H108.432V154.551H119.377V73.8535Z" fill="#A66BE4"/>
<path d="M73.5575 108.733V119.678H154.255V108.733H73.5575Z" fill="#A66BE4"/>
<path d="M89.2422 81.8042L81.5032 89.5432L138.564 146.605L146.304 138.865L89.2422 81.8042Z" fill="#A66BE4"/>
<path d="M146.307 89.2412L138.568 81.5022L81.5069 138.564L89.2459 146.303L146.307 89.2412Z" fill="#A66BE4"/>
</svg>
