<svg width="141" height="141" viewBox="0 0 141 141" fill="none" xmlns="http://www.w3.org/2000/svg">
<g clip-path="url(#clip0)">
<path d="M75.5615 0H65.5029V141H75.5615V0Z" fill="#00465B"/>
<path d="M6.76578 39.3978L2.91635 48.6909L133.186 102.652L137.036 93.3585L6.76578 39.3978Z" fill="#00465B"/>
<path d="M138.302 48.9118L134.452 39.6187L4.18246 93.5794L8.03189 102.872L138.302 48.9118Z" fill="#00465B"/>
<path d="M22.9343 17.3124L15.8219 24.4248L115.523 124.126L122.635 117.013L22.9343 17.3124Z" fill="#00465B"/>
<path d="M47.4244 3.44061L38.1313 7.29004L92.092 137.56L101.385 133.711L47.4244 3.44061Z" fill="#00465B"/>
<path d="M123.906 24.2042L116.793 17.0918L17.092 116.793L24.2045 123.905L123.906 24.2042Z" fill="#00465B"/>
<path d="M103.279 8.39085L94.056 4.37646L37.783 133.659L47.0057 137.674L103.279 8.39085Z" fill="#00465B"/>
<path d="M3.8147e-05 66.2143L3.8147e-05 76.2729L141 76.2729V66.2143L3.8147e-05 66.2143Z" fill="#00465B"/>
<path d="M70.5 133.366C105.196 133.366 133.323 105.239 133.323 70.5428C133.323 35.8467 105.196 7.71997 70.5 7.71997C35.8039 7.71997 7.67717 35.8467 7.67717 70.5428C7.67717 105.239 35.8039 133.366 70.5 133.366Z" fill="#00465B"/>
<path d="M70.5 117.746C96.5932 117.746 117.746 96.5933 117.746 70.5001C117.746 44.4069 96.5932 23.2542 70.5 23.2542C44.4068 23.2542 23.254 44.4069 23.254 70.5001C23.254 96.5933 44.4068 117.746 70.5 117.746Z" fill="#1EB081"/>
<path d="M70.0647 93.6699C82.4505 93.6699 92.4911 83.6293 92.4911 71.2435C92.4911 58.8578 82.4505 48.8171 70.0647 48.8171C57.679 48.8171 47.6383 58.8578 47.6383 71.2435C47.6383 83.6293 57.679 93.6699 70.0647 93.6699Z" fill="#00465B"/>
</g>
<defs>
<clipPath id="clip0">
<rect width="141" height="141" fill="white"/>
</clipPath>
</defs>
</svg>
