<svg width="142" height="142" viewBox="0 0 142 142" fill="none" xmlns="http://www.w3.org/2000/svg">
<g clip-path="url(#clip0)">
<path d="M76.0974 0H65.9658V142H76.0974V0Z" fill="#00465B"/>
<path d="M6.81602 39.6767L2.93863 49.0374L134.132 103.381L138.01 94.0201L6.81602 39.6767Z" fill="#00465B"/>
<path d="M139.284 49.2603L135.407 39.8997L4.21304 94.2431L8.09043 103.604L139.284 49.2603Z" fill="#00465B"/>
<path d="M23.0979 17.4338L15.9338 24.5979L116.342 125.006L123.506 117.842L23.0979 17.4338Z" fill="#00465B"/>
<path d="M47.7622 3.46441L38.4015 7.3418L92.7449 138.536L102.106 134.658L47.7622 3.46441Z" fill="#00465B"/>
<path d="M124.786 24.378L117.622 17.2139L17.2142 117.622L24.3783 124.786L124.786 24.378Z" fill="#00465B"/>
<path d="M104.01 8.45224L94.7208 4.40869L38.0486 134.608L47.3383 138.652L104.01 8.45224Z" fill="#00465B"/>
<path d="M-0.00088501 66.6806L-0.00088501 76.8123L141.999 76.8123V66.6806L-0.00088501 66.6806Z" fill="#00465B"/>
<path d="M71.0328 132.169C104.816 132.169 132.202 104.783 132.202 71.0001C132.202 37.2174 104.816 9.83105 71.0328 9.83105C37.2501 9.83105 9.86377 37.2174 9.86377 71.0001C9.86377 104.783 37.2501 132.169 71.0328 132.169Z" fill="#A66BE4"/>
<path d="M71 126.629C101.895 126.629 126.94 101.584 126.94 70.689C126.94 39.7941 101.895 14.7488 71 14.7488C40.105 14.7488 15.0598 39.7941 15.0598 70.689C15.0598 101.584 40.105 126.629 71 126.629Z" fill="#00465B"/>
<path d="M70.7801 90.7402C81.3906 90.7402 89.9921 82.1387 89.9921 71.5282C89.9921 60.9177 81.3906 52.3162 70.7801 52.3162C60.1696 52.3162 51.5681 60.9177 51.5681 71.5282C51.5681 82.1387 60.1696 90.7402 70.7801 90.7402Z" fill="#A66BE4"/>
</g>
<defs>
<clipPath id="clip0">
<rect width="142" height="142" fill="white"/>
</clipPath>
</defs>
</svg>
