<svg width="117" height="117" viewBox="0 0 117 117" fill="none" xmlns="http://www.w3.org/2000/svg">
<circle cx="58.5" cy="58.5" r="58.5" fill="#FFD923"/>
<path d="M54.0741 111.5C11.841 111.5 -5.91305 67.5088 11.841 37.6476C26.056 13.7552 56.9911 5.87494 80.949 20.0427C100.115 31.3769 106.437 56.0573 95.0715 75.1711C85.9759 90.4622 66.1707 95.509 50.8377 86.4383C38.5729 79.1867 34.5295 63.3842 41.8009 51.153C47.6181 41.3698 60.2947 38.1422 70.1049 43.9434C77.9563 48.5878 80.5454 58.698 75.8884 66.528C72.1644 72.7903 64.0523 74.8526 57.7728 71.1388C52.7459 68.1711 51.0898 61.6992 54.0741 56.686" stroke="#A66BE4" stroke-width="7" stroke-miterlimit="10"/>
</svg>
